<svg width="801" height="801" viewBox="0 0 801 801" fill="none" xmlns="http://www.w3.org/2000/svg">
<path d="M800.685 0.685547V400.686H0.685425V0.685547L800.685 0.685547Z" fill="white"/>
<path d="M800.685 0.685547V400.686H0.685425V0.685547L800.685 0.685547Z" fill="white"/>
<path d="M800.685 400.686V800.686H0.685425V400.686H800.685Z" fill="#0094FF"/>
<path d="M179.99 259.125C186.822 259.125 192.792 257.055 197.898 252.914C203.005 248.773 205.835 243.598 206.387 237.387H224.502C224.157 243.805 221.948 249.912 217.877 255.709C213.805 261.506 208.353 266.13 201.521 269.58C194.758 273.031 187.581 274.756 179.99 274.756C164.739 274.756 152.593 269.684 143.553 259.539C134.581 249.326 130.096 235.385 130.096 217.719V214.51C130.096 203.606 132.097 193.91 136.099 185.422C140.102 176.934 145.83 170.343 153.283 165.65C160.805 160.958 169.673 158.611 179.887 158.611C192.446 158.611 202.867 162.372 211.148 169.895C219.499 177.417 223.95 187.182 224.502 199.189H206.387C205.835 191.943 203.074 186.008 198.105 181.385C193.206 176.692 187.133 174.346 179.887 174.346C170.156 174.346 162.599 177.865 157.217 184.904C151.903 191.874 149.246 201.984 149.246 215.234V218.857C149.246 231.762 151.903 241.7 157.217 248.67C162.53 255.64 170.122 259.125 179.99 259.125ZM315.182 272.686C314.077 270.477 313.18 266.544 312.49 260.885C303.588 270.132 292.96 274.756 280.607 274.756C269.566 274.756 260.491 271.65 253.383 265.439C246.344 259.16 242.824 251.223 242.824 241.631C242.824 229.968 247.241 220.928 256.074 214.51C264.976 208.023 277.467 204.779 293.547 204.779H312.18V195.98C312.18 189.286 310.178 183.973 306.176 180.039C302.173 176.036 296.273 174.035 288.474 174.035C281.642 174.035 275.915 175.76 271.291 179.211C266.667 182.661 264.355 186.837 264.355 191.736H245.101C245.101 186.146 247.068 180.764 251.002 175.588C255.004 170.343 260.387 166.202 267.15 163.166C273.982 160.13 281.47 158.611 289.613 158.611C302.518 158.611 312.628 161.855 319.943 168.342C327.258 174.76 331.054 183.628 331.33 194.945V246.496C331.33 256.779 332.641 264.956 335.264 271.029V272.686H315.182ZM283.402 258.09C289.406 258.09 295.099 256.537 300.482 253.432C305.865 250.326 309.764 246.289 312.18 241.32V218.34H297.17C273.706 218.34 261.974 225.206 261.974 238.939C261.974 244.943 263.976 249.636 267.978 253.018C271.981 256.399 277.122 258.09 283.402 258.09ZM426.564 242.977C426.564 237.801 424.598 233.798 420.664 230.969C416.799 228.07 410.002 225.586 400.271 223.516C390.61 221.445 382.915 218.961 377.187 216.062C371.529 213.164 367.319 209.714 364.558 205.711C361.867 201.708 360.521 196.947 360.521 191.426C360.521 182.247 364.386 174.484 372.115 168.135C379.913 161.786 389.851 158.611 401.928 158.611C414.626 158.611 424.908 161.889 432.775 168.445C440.711 175.001 444.68 183.386 444.68 193.6H425.426C425.426 188.355 423.183 183.835 418.697 180.039C414.28 176.243 408.691 174.346 401.928 174.346C394.958 174.346 389.506 175.864 385.572 178.9C381.639 181.937 379.672 185.905 379.672 190.805C379.672 195.428 381.501 198.913 385.158 201.26C388.816 203.606 395.406 205.849 404.93 207.988C414.522 210.128 422.286 212.681 428.221 215.648C434.155 218.616 438.538 222.204 441.367 226.414C444.266 230.555 445.715 235.627 445.715 241.631C445.715 251.637 441.712 259.677 433.707 265.75C425.702 271.754 415.316 274.756 402.549 274.756C393.577 274.756 385.641 273.169 378.74 269.994C371.839 266.82 366.422 262.403 362.488 256.744C358.624 251.016 356.691 244.84 356.691 238.215H375.842C376.187 244.633 378.74 249.74 383.502 253.535C388.333 257.262 394.682 259.125 402.549 259.125C409.795 259.125 415.592 257.676 419.939 254.777C424.356 251.81 426.564 247.876 426.564 242.977ZM539.81 272.686C538.706 270.477 537.809 266.544 537.119 260.885C528.217 270.132 517.589 274.756 505.236 274.756C494.195 274.756 485.12 271.65 478.012 265.439C470.973 259.16 467.453 251.223 467.453 241.631C467.453 229.968 471.87 220.928 480.703 214.51C489.605 208.023 502.096 204.779 518.176 204.779H536.808V195.98C536.808 189.286 534.807 183.973 530.805 180.039C526.802 176.036 520.902 174.035 513.103 174.035C506.271 174.035 500.543 175.76 495.92 179.211C491.296 182.661 488.984 186.837 488.984 191.736H469.73C469.73 186.146 471.697 180.764 475.631 175.588C479.633 170.343 485.016 166.202 491.779 163.166C498.611 160.13 506.099 158.611 514.242 158.611C527.147 158.611 537.257 161.855 544.572 168.342C551.887 174.76 555.683 183.628 555.959 194.945V246.496C555.959 256.779 557.27 264.956 559.892 271.029V272.686H539.81ZM508.031 258.09C514.035 258.09 519.728 256.537 525.111 253.432C530.494 250.326 534.393 246.289 536.808 241.32V218.34H521.799C498.335 218.34 486.603 225.206 486.603 238.939C486.603 244.943 488.605 249.636 492.607 253.018C496.61 256.399 501.751 258.09 508.031 258.09ZM651.193 242.977C651.193 237.801 649.226 233.798 645.293 230.969C641.428 228.07 634.631 225.586 624.9 223.516C615.239 221.445 607.544 218.961 601.816 216.062C596.157 213.164 591.948 209.714 589.187 205.711C586.496 201.708 585.15 196.947 585.15 191.426C585.15 182.247 589.015 174.484 596.744 168.135C604.542 161.786 614.48 158.611 626.557 158.611C639.254 158.611 649.537 161.889 657.404 168.445C665.34 175.001 669.308 183.386 669.308 193.6H650.055C650.055 188.355 647.812 183.835 643.326 180.039C638.909 176.243 633.32 174.346 626.557 174.346C619.586 174.346 614.135 175.864 610.201 178.9C606.267 181.937 604.301 185.905 604.301 190.805C604.301 195.428 606.129 198.913 609.787 201.26C613.445 203.606 620.035 205.849 629.558 207.988C639.151 210.128 646.915 212.681 652.849 215.648C658.784 218.616 663.167 222.204 665.996 226.414C668.894 230.555 670.344 235.627 670.344 241.631C670.344 251.637 666.341 259.677 658.336 265.75C650.331 271.754 639.945 274.756 627.178 274.756C618.206 274.756 610.27 273.169 603.369 269.994C596.468 266.82 591.051 262.403 587.117 256.744C583.252 251.016 581.32 244.84 581.32 238.215H600.471C600.816 244.633 603.369 249.74 608.131 253.535C612.961 257.262 619.31 259.125 627.178 259.125C634.424 259.125 640.221 257.676 644.568 254.777C648.985 251.81 651.193 247.876 651.193 242.977Z" fill="black"/>
<path d="M167.248 640.475C171.889 640.475 175.943 639.068 179.412 636.256C182.881 633.443 184.803 629.928 185.178 625.709H197.482C197.248 630.068 195.748 634.217 192.982 638.154C190.217 642.092 186.514 645.232 181.873 647.576C177.279 649.92 172.404 651.092 167.248 651.092C156.889 651.092 148.639 647.646 142.498 640.756C136.404 633.818 133.357 624.35 133.357 612.35V610.17C133.357 602.764 134.717 596.178 137.435 590.412C140.154 584.646 144.045 580.17 149.107 576.982C154.217 573.795 160.24 572.201 167.178 572.201C175.709 572.201 182.787 574.756 188.412 579.865C194.084 584.975 197.107 591.607 197.482 599.764H185.178C184.803 594.842 182.928 590.811 179.553 587.67C176.224 584.482 172.099 582.889 167.178 582.889C160.568 582.889 155.435 585.279 151.779 590.061C148.17 594.795 146.365 601.662 146.365 610.662V613.123C146.365 621.889 148.17 628.639 151.779 633.373C155.389 638.107 160.545 640.475 167.248 640.475ZM259.076 649.686C258.326 648.186 257.717 645.514 257.248 641.67C251.201 647.951 243.982 651.092 235.592 651.092C228.092 651.092 221.928 648.982 217.099 644.764C212.318 640.498 209.928 635.107 209.928 628.592C209.928 620.67 212.928 614.529 218.928 610.17C224.974 605.764 233.459 603.561 244.381 603.561H257.037V597.584C257.037 593.037 255.678 589.428 252.959 586.756C250.24 584.037 246.232 582.678 240.935 582.678C236.295 582.678 232.404 583.85 229.264 586.193C226.123 588.537 224.553 591.373 224.553 594.701L211.474 594.701C211.474 590.904 212.81 587.248 215.482 583.732C218.201 580.17 221.857 577.357 226.451 575.295C231.092 573.232 236.178 572.201 241.709 572.201C250.474 572.201 257.342 574.404 262.31 578.811C267.279 583.17 269.857 589.193 270.045 596.881V631.896C270.045 638.881 270.935 644.436 272.717 648.561V649.686H259.076ZM237.49 639.771C241.568 639.771 245.435 638.717 249.092 636.607C252.748 634.498 255.396 631.756 257.037 628.381V612.771H246.842C230.904 612.771 222.935 617.436 222.935 626.764C222.935 630.842 224.295 634.029 227.014 636.326C229.732 638.623 233.224 639.771 237.49 639.771ZM327.209 585.279C325.24 584.951 323.107 584.787 320.81 584.787C312.279 584.787 306.49 588.42 303.443 595.686V649.686H290.435V573.607H303.092L303.303 582.396C307.568 575.6 313.615 572.201 321.443 572.201C323.974 572.201 325.896 572.529 327.209 573.186V585.279ZM353.365 649.686H340.357V573.607H353.365V649.686ZM339.303 553.428C339.303 551.318 339.935 549.537 341.201 548.084C342.514 546.631 344.435 545.904 346.967 545.904C349.498 545.904 351.42 546.631 352.732 548.084C354.045 549.537 354.701 551.318 354.701 553.428C354.701 555.537 354.045 557.295 352.732 558.701C351.42 560.107 349.498 560.811 346.967 560.811C344.435 560.811 342.514 560.107 341.201 558.701C339.935 557.295 339.303 555.537 339.303 553.428ZM370.803 610.943C370.803 603.49 372.256 596.787 375.162 590.834C378.115 584.881 382.193 580.287 387.396 577.053C392.646 573.818 398.623 572.201 405.326 572.201C415.685 572.201 424.053 575.787 430.428 582.959C436.849 590.131 440.06 599.67 440.06 611.576V612.49C440.06 619.896 438.631 626.553 435.771 632.459C432.959 638.318 428.904 642.889 423.607 646.17C418.357 649.451 412.31 651.092 405.467 651.092C395.154 651.092 386.787 647.506 380.365 640.334C373.99 633.162 370.803 623.67 370.803 611.857V610.943ZM383.881 612.49C383.881 620.928 385.826 627.701 389.717 632.811C393.654 637.92 398.904 640.475 405.467 640.475C412.076 640.475 417.326 637.896 421.217 632.74C425.107 627.537 427.053 620.271 427.053 610.943C427.053 602.6 425.06 595.85 421.076 590.693C417.139 585.49 411.889 582.889 405.326 582.889C398.904 582.889 393.724 585.443 389.787 590.553C385.849 595.662 383.881 602.975 383.881 612.49ZM486.889 640.475C491.529 640.475 495.584 639.068 499.053 636.256C502.521 633.443 504.443 629.928 504.818 625.709H517.123C516.889 630.068 515.389 634.217 512.623 638.154C509.857 642.092 506.154 645.232 501.514 647.576C496.92 649.92 492.045 651.092 486.889 651.092C476.529 651.092 468.279 647.646 462.139 640.756C456.045 633.818 452.998 624.35 452.998 612.35V610.17C452.998 602.764 454.357 596.178 457.076 590.412C459.795 584.646 463.685 580.17 468.748 576.982C473.857 573.795 479.881 572.201 486.818 572.201C495.349 572.201 502.428 574.756 508.053 579.865C513.724 584.975 516.748 591.607 517.123 599.764H504.818C504.443 594.842 502.568 590.811 499.193 587.67C495.865 584.482 491.74 582.889 486.818 582.889C480.209 582.889 475.076 585.279 471.42 590.061C467.81 594.795 466.006 601.662 466.006 610.662V613.123C466.006 621.889 467.81 628.639 471.42 633.373C475.029 638.107 480.185 640.475 486.889 640.475ZM578.717 649.686C577.967 648.186 577.357 645.514 576.889 641.67C570.842 647.951 563.623 651.092 555.232 651.092C547.732 651.092 541.568 648.982 536.74 644.764C531.959 640.498 529.568 635.107 529.568 628.592C529.568 620.67 532.568 614.529 538.568 610.17C544.615 605.764 553.099 603.561 564.021 603.561H576.678V597.584C576.678 593.037 575.318 589.428 572.599 586.756C569.881 584.037 565.873 582.678 560.576 582.678C555.935 582.678 552.045 583.85 548.904 586.193C545.764 588.537 544.193 591.373 544.193 594.701H531.115C531.115 590.904 532.451 587.248 535.123 583.732C537.842 580.17 541.498 577.357 546.092 575.295C550.732 573.232 555.818 572.201 561.349 572.201C570.115 572.201 576.982 574.404 581.951 578.811C586.92 583.17 589.498 589.193 589.685 596.881V631.896C589.685 638.881 590.576 644.436 592.357 648.561V649.686H578.717ZM557.131 639.771C561.209 639.771 565.076 638.717 568.732 636.607C572.389 634.498 575.037 631.756 576.678 628.381V612.771H566.482C550.545 612.771 542.576 617.436 542.576 626.764C542.576 630.842 543.935 634.029 546.654 636.326C549.373 638.623 552.865 639.771 557.131 639.771ZM654.373 629.506C654.373 625.99 653.037 623.271 650.365 621.35C647.74 619.381 643.123 617.693 636.514 616.287C629.951 614.881 624.724 613.193 620.834 611.225C616.99 609.256 614.131 606.912 612.256 604.193C610.428 601.475 609.514 598.24 609.514 594.49C609.514 588.256 612.139 582.982 617.389 578.67C622.685 574.357 629.435 572.201 637.639 572.201C646.264 572.201 653.248 574.428 658.592 578.881C663.982 583.334 666.678 589.029 666.678 595.967H653.599C653.599 592.404 652.076 589.334 649.029 586.756C646.029 584.178 642.232 582.889 637.639 582.889C632.904 582.889 629.201 583.92 626.529 585.982C623.857 588.045 622.521 590.74 622.521 594.068C622.521 597.209 623.764 599.576 626.248 601.17C628.732 602.764 633.209 604.287 639.678 605.74C646.193 607.193 651.467 608.928 655.498 610.943C659.529 612.959 662.506 615.396 664.428 618.256C666.396 621.068 667.381 624.514 667.381 628.592C667.381 635.389 664.662 640.85 659.224 644.975C653.787 649.053 646.732 651.092 638.06 651.092C631.967 651.092 626.576 650.014 621.889 647.857C617.201 645.701 613.521 642.701 610.849 638.857C608.224 634.967 606.912 630.771 606.912 626.271H619.92C620.154 630.631 621.889 634.1 625.123 636.678C628.404 639.209 632.717 640.475 638.06 640.475C642.982 640.475 646.92 639.49 649.873 637.521C652.873 635.506 654.373 632.834 654.373 629.506Z" fill="black"/>
</svg>
