<svg width="1024" height="876" viewBox="0 0 1024 876" fill="none" xmlns="http://www.w3.org/2000/svg">
<g clip-path="url(#clip0)">
<path d="M250 584.353C644 584.354 638 260.414 735 353.157" stroke="black" stroke-width="8"/>
<g filter="url(#filter0_i)">
<path d="M0 876L196.741 558.788C211.061 535.699 243.741 533.299 261.281 554.048L411.576 731.835C420.277 742.128 436.46 741.043 443.71 729.681L714.127 305.861C731.445 278.718 772.1 282.116 784.672 311.757L1024 876H0Z" fill="#0066FF"/>
</g>
<path d="M279.41 56.75C279.41 46.6667 283.392 38.8607 291.355 33.332C300.895 26.6862 314.243 23.3633 331.402 23.3633C334.382 23.3633 337.146 23.5065 339.695 23.793V44.1602C335.943 43.6445 331.875 43.3867 327.492 43.3867C323.138 43.3867 319.543 44.4323 316.707 46.5234C313.9 48.6146 312.496 51.9375 312.496 56.4922C312.496 66.1172 317.638 70.9297 327.922 70.9297C330.529 70.9297 334.453 70.4284 339.695 69.4258V88.2891C335.799 88.7188 331.818 88.9336 327.75 88.9336C306.695 88.9336 292.301 83.8919 284.566 73.8086C281.129 69.3398 279.41 63.6536 279.41 56.75ZM401.227 63.7969C398.104 53.7422 396.056 46.8529 395.082 43.1289C393.478 48.1706 391.888 52.7253 390.312 56.793C388.737 60.8607 387.835 63.1953 387.605 63.7969H401.227ZM381.16 79.5664L377.938 87.6445C376.477 87.8451 375.03 87.9453 373.598 87.9453C372.165 87.9453 364.832 87.6302 351.598 87C354.892 80.0964 364.059 59.6146 379.098 25.5547C380.902 25.4974 384.927 25.3398 391.172 25.082C397.445 24.7956 402.902 24.6523 407.543 24.6523C412.184 24.6523 415.378 24.9388 417.125 25.5117C417.297 26.0846 424.816 43.6445 439.684 78.1914L443.293 86.6133C425.074 87.7305 415.779 88.2891 415.406 88.2891C415.062 88.2891 413.215 88.2031 409.863 88.0312C408.574 85.7109 407.471 83.0039 406.555 79.9102C404.721 79.681 396.257 79.5664 381.16 79.5664ZM516.039 86.0547C512.401 87.0859 508.477 87.8164 504.266 88.2461C500.055 88.7044 495.214 88.9336 489.742 88.9336C484.271 88.9336 478.284 88.4323 471.781 87.4297C465.279 86.4557 459.163 85.0234 453.434 83.1328C453.548 82.6458 454.938 77.2747 457.602 67.0195C457.602 66.819 457.716 66.7188 457.945 66.7188C463.102 68.0078 467.055 68.9531 469.805 69.5547C477.109 71.1589 484.915 71.9609 493.223 71.9609C497.777 71.9609 500.055 71.1732 500.055 69.5977C500.055 68.8815 499.826 68.3802 499.367 68.0938C498.909 67.7786 498.107 67.5352 496.961 67.3633C495.815 67.1914 493.967 66.9193 491.418 66.5469C488.868 66.1458 486.921 65.8307 485.574 65.6016C484.228 65.3724 482.337 65.043 479.902 64.6133C477.467 64.1836 475.605 63.7969 474.316 63.4531C473.056 63.1094 471.423 62.6654 469.418 62.1211C467.441 61.5482 465.909 60.9753 464.82 60.4023C463.732 59.8294 462.471 59.1419 461.039 58.3398C459.607 57.5378 458.518 56.6784 457.773 55.7617C456.971 54.8451 456.198 53.8138 455.453 52.668C454.078 50.5768 453.391 48.013 453.391 44.9766C453.391 37.0703 457.029 31.4987 464.305 28.2617C471.581 24.9961 482.38 23.3633 496.703 23.3633C502.604 23.3633 508.62 23.9792 514.75 25.2109C520.909 26.4427 525.421 27.7604 528.285 29.1641C526.681 35.237 525.263 40.1354 524.031 43.8594C520.622 42.9141 515.695 41.9831 509.25 41.0664C502.805 40.1211 497.076 39.6484 492.062 39.6484C487.078 39.6484 484.586 40.4505 484.586 42.0547C484.586 42.9714 485.216 43.6589 486.477 44.1172C487.766 44.5469 490.816 45.1628 495.629 45.9648C500.47 46.7383 503.721 47.2682 505.383 47.5547C517.758 49.6745 525.693 52.7969 529.188 56.9219C531.766 59.987 533.055 63.2812 533.055 66.8047C533.083 70.3281 532.396 73.3359 530.992 75.8281C529.617 78.3203 527.698 80.3828 525.234 82.0156C522.771 83.6484 519.706 84.9948 516.039 86.0547ZM591.75 63.7969C588.628 53.7422 586.579 46.8529 585.605 43.1289C584.001 48.1706 582.411 52.7253 580.836 56.793C579.26 60.8607 578.358 63.1953 578.129 63.7969H591.75ZM571.684 79.5664L568.461 87.6445C567 87.8451 565.553 87.9453 564.121 87.9453C562.689 87.9453 555.355 87.6302 542.121 87C545.415 80.0964 554.582 59.6146 569.621 25.5547C571.426 25.4974 575.451 25.3398 581.695 25.082C587.969 24.7956 593.426 24.6523 598.066 24.6523C602.707 24.6523 605.901 24.9388 607.648 25.5117C607.82 26.0846 615.34 43.6445 630.207 78.1914L633.816 86.6133C615.598 87.7305 606.302 88.2891 605.93 88.2891C605.586 88.2891 603.738 88.2031 600.387 88.0312C599.098 85.7109 597.995 83.0039 597.078 79.9102C595.245 79.681 586.78 79.5664 571.684 79.5664ZM706.562 86.0547C702.924 87.0859 699 87.8164 694.789 88.2461C690.578 88.7044 685.737 88.9336 680.266 88.9336C674.794 88.9336 668.807 88.4323 662.305 87.4297C655.802 86.4557 649.686 85.0234 643.957 83.1328C644.072 82.6458 645.461 77.2747 648.125 67.0195C648.125 66.819 648.24 66.7188 648.469 66.7188C653.625 68.0078 657.578 68.9531 660.328 69.5547C667.633 71.1589 675.439 71.9609 683.746 71.9609C688.301 71.9609 690.578 71.1732 690.578 69.5977C690.578 68.8815 690.349 68.3802 689.891 68.0938C689.432 67.7786 688.63 67.5352 687.484 67.3633C686.339 67.1914 684.491 66.9193 681.941 66.5469C679.392 66.1458 677.444 65.8307 676.098 65.6016C674.751 65.3724 672.861 65.043 670.426 64.6133C667.991 64.1836 666.129 63.7969 664.84 63.4531C663.579 63.1094 661.947 62.6654 659.941 62.1211C657.965 61.5482 656.432 60.9753 655.344 60.4023C654.255 59.8294 652.995 59.1419 651.562 58.3398C650.13 57.5378 649.042 56.6784 648.297 55.7617C647.495 54.8451 646.721 53.8138 645.977 52.668C644.602 50.5768 643.914 48.013 643.914 44.9766C643.914 37.0703 647.552 31.4987 654.828 28.2617C662.104 24.9961 672.904 23.3633 687.227 23.3633C693.128 23.3633 699.143 23.9792 705.273 25.2109C711.432 26.4427 715.944 27.7604 718.809 29.1641C717.204 35.237 715.786 40.1354 714.555 43.8594C711.146 42.9141 706.219 41.9831 699.773 41.0664C693.328 40.1211 687.599 39.6484 682.586 39.6484C677.602 39.6484 675.109 40.4505 675.109 42.0547C675.109 42.9714 675.74 43.6589 677 44.1172C678.289 44.5469 681.34 45.1628 686.152 45.9648C690.993 46.7383 694.245 47.2682 695.906 47.5547C708.281 49.6745 716.216 52.7969 719.711 56.9219C722.289 59.987 723.578 63.2812 723.578 66.8047C723.607 70.3281 722.919 73.3359 721.516 75.8281C720.141 78.3203 718.221 80.3828 715.758 82.0156C713.294 83.6484 710.229 84.9948 706.562 86.0547ZM166.617 167.75C166.617 157.667 170.599 149.861 178.562 144.332C188.102 137.686 201.451 134.363 218.609 134.363C221.589 134.363 224.353 134.507 226.902 134.793V155.16C223.15 154.645 219.082 154.387 214.699 154.387C210.345 154.387 206.75 155.432 203.914 157.523C201.107 159.615 199.703 162.938 199.703 167.492C199.703 177.117 204.845 181.93 215.129 181.93C217.736 181.93 221.66 181.428 226.902 180.426V199.289C223.007 199.719 219.025 199.934 214.957 199.934C193.902 199.934 179.508 194.892 171.773 184.809C168.336 180.34 166.617 174.654 166.617 167.75ZM288.434 174.797C285.311 164.742 283.263 157.853 282.289 154.129C280.685 159.171 279.095 163.725 277.52 167.793C275.944 171.861 275.042 174.195 274.812 174.797H288.434ZM268.367 190.566L265.145 198.645C263.684 198.845 262.237 198.945 260.805 198.945C259.372 198.945 252.039 198.63 238.805 198C242.099 191.096 251.266 170.615 266.305 136.555C268.109 136.497 272.134 136.34 278.379 136.082C284.652 135.796 290.109 135.652 294.75 135.652C299.391 135.652 302.585 135.939 304.332 136.512C304.504 137.085 312.023 154.645 326.891 189.191L330.5 197.613C312.281 198.73 302.986 199.289 302.613 199.289C302.27 199.289 300.422 199.203 297.07 199.031C295.781 196.711 294.678 194.004 293.762 190.91C291.928 190.681 283.464 190.566 268.367 190.566ZM397.016 157.008C397.016 153.685 393.549 152.023 386.617 152.023C384.383 152.023 381.089 152.109 376.734 152.281L376.004 164.398C377.207 164.255 379.126 164.069 381.762 163.84C384.426 163.611 386.861 163.339 389.066 163.023C391.272 162.68 393.148 162.064 394.695 161.176C396.242 160.259 397.016 158.87 397.016 157.008ZM398.477 201.695C397.417 199.719 395.311 195.493 392.16 189.02C389.038 182.546 386.947 178.048 385.887 175.527L375.359 176.258L374.5 197.613C374.5 197.842 374.4 197.971 374.199 198C365.491 198.143 358.988 198.286 354.691 198.43L344.637 198.773C344.637 194.591 344.923 185.081 345.496 170.242L345.754 163.152L347.043 136.34C347.072 136.368 347.243 136.354 347.559 136.297C352.486 135.609 361.395 135.266 374.285 135.266C387.176 135.266 395.283 135.294 398.605 135.352C401.957 135.466 405.251 135.781 408.488 136.297C421.207 138.331 427.566 143.816 427.566 152.754C427.566 157.767 426.034 161.72 422.969 164.613C419.932 167.478 416.352 169.598 412.227 170.973C414.06 173.064 417.569 177.661 422.754 184.766C427.967 191.841 431.061 195.98 432.035 197.184L398.477 201.695ZM471.652 135.824L479.129 135.738C479.243 136.454 479.301 137.214 479.301 138.016L479.086 143.773L477.926 197.57L469.719 197.785C469.719 197.785 462.228 197.857 447.246 198C447.16 197.169 447.117 196.109 447.117 194.82C447.117 194.82 447.604 175.341 448.578 136.383C454.909 136.01 462.6 135.824 471.652 135.824ZM542.594 182.488C547.635 182.488 551.488 181.128 554.152 178.406C556.845 175.685 558.191 171.66 558.191 166.332C558.191 160.975 556.831 157.28 554.109 155.246C551.388 153.212 547.635 152.195 542.852 152.195C538.068 152.195 534.272 153.527 531.465 156.191C528.686 158.827 527.297 162.665 527.297 167.707C527.297 177.561 532.396 182.488 542.594 182.488ZM492.879 168.395C492.879 157.452 497.305 149.044 506.156 143.172C515.036 137.299 527.326 134.363 543.023 134.363C558.721 134.363 570.853 137.085 579.418 142.527C587.983 147.97 592.266 155.676 592.266 165.645C592.266 176.444 587.725 184.866 578.645 190.91C569.564 196.926 557.16 199.934 541.434 199.934C525.707 199.934 513.676 197.141 505.34 191.555C497.033 185.94 492.879 178.22 492.879 168.395ZM603.438 167.75C603.438 157.667 607.419 149.861 615.383 144.332C624.922 137.686 638.271 134.363 655.43 134.363C658.409 134.363 661.173 134.507 663.723 134.793V155.16C659.97 154.645 655.902 154.387 651.52 154.387C647.165 154.387 643.57 155.432 640.734 157.523C637.927 159.615 636.523 162.938 636.523 167.492C636.523 177.117 641.665 181.93 651.949 181.93C654.556 181.93 658.48 181.428 663.723 180.426V199.289C659.827 199.719 655.845 199.934 651.777 199.934C630.723 199.934 616.328 194.892 608.594 184.809C605.156 180.34 603.438 174.654 603.438 167.75ZM725.254 174.797C722.132 164.742 720.083 157.853 719.109 154.129C717.505 159.171 715.915 163.725 714.34 167.793C712.764 171.861 711.862 174.195 711.633 174.797H725.254ZM705.188 190.566L701.965 198.645C700.504 198.845 699.057 198.945 697.625 198.945C696.193 198.945 688.859 198.63 675.625 198C678.919 191.096 688.086 170.615 703.125 136.555C704.93 136.497 708.954 136.34 715.199 136.082C721.473 135.796 726.93 135.652 731.57 135.652C736.211 135.652 739.405 135.939 741.152 136.512C741.324 137.085 748.844 154.645 763.711 189.191L767.32 197.613C749.102 198.73 739.806 199.289 739.434 199.289C739.09 199.289 737.242 199.203 733.891 199.031C732.602 196.711 731.499 194.004 730.582 190.91C728.749 190.681 720.284 190.566 705.188 190.566ZM840.066 197.055C836.428 198.086 832.504 198.816 828.293 199.246C824.082 199.704 819.241 199.934 813.77 199.934C808.298 199.934 802.311 199.432 795.809 198.43C789.306 197.456 783.19 196.023 777.461 194.133C777.576 193.646 778.965 188.275 781.629 178.02C781.629 177.819 781.743 177.719 781.973 177.719C787.129 179.008 791.082 179.953 793.832 180.555C801.137 182.159 808.943 182.961 817.25 182.961C821.805 182.961 824.082 182.173 824.082 180.598C824.082 179.882 823.853 179.38 823.395 179.094C822.936 178.779 822.134 178.535 820.988 178.363C819.842 178.191 817.995 177.919 815.445 177.547C812.896 177.146 810.948 176.831 809.602 176.602C808.255 176.372 806.365 176.043 803.93 175.613C801.495 175.184 799.633 174.797 798.344 174.453C797.083 174.109 795.451 173.665 793.445 173.121C791.469 172.548 789.936 171.975 788.848 171.402C787.759 170.829 786.499 170.142 785.066 169.34C783.634 168.538 782.546 167.678 781.801 166.762C780.999 165.845 780.225 164.814 779.48 163.668C778.105 161.577 777.418 159.013 777.418 155.977C777.418 148.07 781.056 142.499 788.332 139.262C795.608 135.996 806.408 134.363 820.73 134.363C826.632 134.363 832.647 134.979 838.777 136.211C844.936 137.443 849.448 138.76 852.312 140.164C850.708 146.237 849.29 151.135 848.059 154.859C844.65 153.914 839.723 152.983 833.277 152.066C826.832 151.121 821.103 150.648 816.09 150.648C811.105 150.648 808.613 151.451 808.613 153.055C808.613 153.971 809.243 154.659 810.504 155.117C811.793 155.547 814.844 156.163 819.656 156.965C824.497 157.738 827.749 158.268 829.41 158.555C841.785 160.674 849.72 163.797 853.215 167.922C855.793 170.987 857.082 174.281 857.082 177.805C857.111 181.328 856.423 184.336 855.02 186.828C853.645 189.32 851.725 191.383 849.262 193.016C846.798 194.648 843.733 195.995 840.066 197.055Z" fill="#8C9529" fill-opacity="0.5"/>
</g>
<defs>
<filter id="filter0_i" x="0" y="237.373" width="1024" height="638.627" filterUnits="userSpaceOnUse" color-interpolation-filters="sRGB">
<feFlood flood-opacity="0" result="BackgroundImageFix"/>
<feBlend mode="normal" in="SourceGraphic" in2="BackgroundImageFix" result="shape"/>
<feColorMatrix in="SourceAlpha" type="matrix" values="0 0 0 0 0 0 0 0 0 0 0 0 0 0 0 0 0 0 127 0" result="hardAlpha"/>
<feOffset dy="-50"/>
<feGaussianBlur stdDeviation="40"/>
<feComposite in2="hardAlpha" operator="arithmetic" k2="-1" k3="1"/>
<feColorMatrix type="matrix" values="0 0 0 0 0 0 0 0 0 0 0 0 0 0 0 0 0 0 0.6 0"/>
<feBlend mode="normal" in2="shape" result="effect1_innerShadow"/>
</filter>
<clipPath id="clip0">
<rect width="1024" height="876" fill="white"/>
</clipPath>
</defs>
</svg>
