<svg width="512" height="438" viewBox="0 0 512 438" fill="none" xmlns="http://www.w3.org/2000/svg">
<g clip-path="url(#clip0)">
<path d="M112 293.257C279 331.914 319 146.775 367.5 190.5" stroke="black"/>
<g filter="url(#filter0_di)">
<path d="M0 437L84.3377 308.781C98.7574 286.859 130.024 284.524 147.539 304.061L197.453 359.735C206.138 369.423 221.616 368.369 228.908 357.593L337.311 197.392C354.864 171.452 394.07 174.836 406.919 203.399L512 437H0Z" fill="#0066FF"/>
</g>
<g filter="url(#filter1_d)">
<path d="M110.631 59.0938C110.631 52.7917 113.12 47.9129 118.097 44.4575C124.059 40.3039 132.402 38.2271 143.126 38.2271C144.988 38.2271 146.716 38.3166 148.31 38.4956V51.2251C145.964 50.9028 143.422 50.7417 140.683 50.7417C137.961 50.7417 135.714 51.3952 133.942 52.7021C132.187 54.0091 131.31 56.0859 131.31 58.9326C131.31 64.9482 134.524 67.9561 140.951 67.9561C142.58 67.9561 145.033 67.6427 148.31 67.0161V78.8057C145.875 79.0742 143.386 79.2085 140.844 79.2085C127.685 79.2085 118.688 76.0575 113.854 69.7554C111.706 66.9624 110.631 63.4085 110.631 59.0938ZM186.767 63.498C184.815 57.2139 183.535 52.908 182.926 50.5806C181.924 53.7316 180.93 56.5783 179.945 59.1206C178.961 61.6629 178.397 63.1221 178.253 63.498H186.767ZM174.225 73.354L172.211 78.4028C171.298 78.5282 170.394 78.5908 169.499 78.5908C168.603 78.5908 164.02 78.3939 155.749 78C157.807 73.6852 163.537 60.8841 172.936 39.5967C174.064 39.5609 176.579 39.4624 180.482 39.3013C184.403 39.1222 187.814 39.0327 190.714 39.0327C193.615 39.0327 195.611 39.2118 196.703 39.5698C196.811 39.9279 201.51 50.9028 210.802 72.4946L213.058 77.7583C201.671 78.4565 195.862 78.8057 195.629 78.8057C195.414 78.8057 194.259 78.752 192.165 78.6445C191.359 77.1943 190.67 75.5024 190.097 73.5688C188.951 73.4256 183.66 73.354 174.225 73.354ZM258.524 77.4092C256.251 78.0537 253.798 78.5103 251.166 78.7788C248.534 79.0653 245.508 79.2085 242.089 79.2085C238.669 79.2085 234.927 78.8952 230.863 78.2686C226.799 77.6598 222.977 76.7646 219.396 75.583C219.468 75.2786 220.336 71.9217 222.001 65.5122C222.001 65.3869 222.073 65.3242 222.216 65.3242C225.438 66.1299 227.909 66.7207 229.628 67.0967C234.193 68.0993 239.072 68.6006 244.264 68.6006C247.111 68.6006 248.534 68.1082 248.534 67.1235C248.534 66.6759 248.391 66.3626 248.104 66.1836C247.818 65.9867 247.317 65.8345 246.601 65.7271C245.884 65.6196 244.73 65.4495 243.136 65.2168C241.543 64.9661 240.325 64.7692 239.484 64.626C238.642 64.4827 237.461 64.2769 235.939 64.0083C234.417 63.7397 233.253 63.498 232.448 63.2832C231.66 63.0684 230.639 62.7909 229.386 62.4507C228.151 62.0926 227.193 61.7345 226.513 61.3765C225.832 61.0184 225.045 60.5887 224.149 60.0874C223.254 59.5861 222.574 59.049 222.108 58.4761C221.607 57.9032 221.124 57.2586 220.658 56.5425C219.799 55.2355 219.369 53.6331 219.369 51.7354C219.369 46.7939 221.643 43.3117 226.19 41.2886C230.738 39.2476 237.488 38.2271 246.439 38.2271C250.128 38.2271 253.887 38.612 257.719 39.3818C261.568 40.1517 264.388 40.9753 266.178 41.8525C265.176 45.6481 264.289 48.7096 263.52 51.0371C261.389 50.4463 258.31 49.8644 254.281 49.2915C250.253 48.7007 246.672 48.4053 243.539 48.4053C240.424 48.4053 238.866 48.9066 238.866 49.9092C238.866 50.4821 239.26 50.9118 240.048 51.1982C240.854 51.4668 242.76 51.8517 245.768 52.353C248.794 52.8364 250.826 53.1676 251.864 53.3467C259.599 54.6715 264.558 56.623 266.742 59.2012C268.354 61.1169 269.159 63.1758 269.159 65.3779C269.177 67.5801 268.747 69.46 267.87 71.0176C267.011 72.5752 265.811 73.8643 264.271 74.8848C262.732 75.9053 260.816 76.7467 258.524 77.4092ZM305.844 63.498C303.892 57.2139 302.612 52.908 302.003 50.5806C301.001 53.7316 300.007 56.5783 299.022 59.1206C298.038 61.6629 297.474 63.1221 297.331 63.498H305.844ZM293.302 73.354L291.288 78.4028C290.375 78.5282 289.471 78.5908 288.576 78.5908C287.681 78.5908 283.097 78.3939 274.826 78C276.885 73.6852 282.614 60.8841 292.013 39.5967C293.141 39.5609 295.657 39.4624 299.56 39.3013C303.48 39.1222 306.891 39.0327 309.792 39.0327C312.692 39.0327 314.688 39.2118 315.78 39.5698C315.888 39.9279 320.587 50.9028 329.879 72.4946L332.135 77.7583C320.749 78.4565 314.939 78.8057 314.706 78.8057C314.491 78.8057 313.336 78.752 311.242 78.6445C310.436 77.1943 309.747 75.5024 309.174 73.5688C308.028 73.4256 302.737 73.354 293.302 73.354ZM377.602 77.4092C375.328 78.0537 372.875 78.5103 370.243 78.7788C367.611 79.0653 364.586 79.2085 361.166 79.2085C357.746 79.2085 354.005 78.8952 349.94 78.2686C345.876 77.6598 342.054 76.7646 338.473 75.583C338.545 75.2786 339.413 71.9217 341.078 65.5122C341.078 65.3869 341.15 65.3242 341.293 65.3242C344.516 66.1299 346.986 66.7207 348.705 67.0967C353.271 68.0993 358.149 68.6006 363.341 68.6006C366.188 68.6006 367.611 68.1082 367.611 67.1235C367.611 66.6759 367.468 66.3626 367.182 66.1836C366.895 65.9867 366.394 65.8345 365.678 65.7271C364.962 65.6196 363.807 65.4495 362.213 65.2168C360.62 64.9661 359.403 64.7692 358.561 64.626C357.72 64.4827 356.538 64.2769 355.016 64.0083C353.494 63.7397 352.331 63.498 351.525 63.2832C350.737 63.0684 349.717 62.7909 348.463 62.4507C347.228 62.0926 346.27 61.7345 345.59 61.3765C344.91 61.0184 344.122 60.5887 343.227 60.0874C342.331 59.5861 341.651 59.049 341.186 58.4761C340.684 57.9032 340.201 57.2586 339.735 56.5425C338.876 55.2355 338.446 53.6331 338.446 51.7354C338.446 46.7939 340.72 43.3117 345.268 41.2886C349.815 39.2476 356.565 38.2271 365.517 38.2271C369.205 38.2271 372.965 38.612 376.796 39.3818C380.645 40.1517 383.465 40.9753 385.255 41.8525C384.253 45.6481 383.367 48.7096 382.597 51.0371C380.466 50.4463 377.387 49.8644 373.358 49.2915C369.33 48.7007 365.749 48.4053 362.616 48.4053C359.501 48.4053 357.943 48.9066 357.943 49.9092C357.943 50.4821 358.337 50.9118 359.125 51.1982C359.931 51.4668 361.837 51.8517 364.845 52.353C367.871 52.8364 369.903 53.1676 370.941 53.3467C378.676 54.6715 383.635 56.623 385.819 59.2012C387.431 61.1169 388.236 63.1758 388.236 65.3779C388.254 67.5801 387.825 69.46 386.947 71.0176C386.088 72.5752 384.888 73.8643 383.349 74.8848C381.809 75.9053 379.893 76.7467 377.602 77.4092ZM40.1357 128.094C40.1357 121.792 42.6243 116.913 47.6016 113.458C53.5635 109.304 61.9066 107.227 72.6309 107.227C74.4928 107.227 76.2205 107.317 77.814 107.496V120.225C75.4686 119.903 72.9263 119.742 70.187 119.742C67.4657 119.742 65.2188 120.395 63.4463 121.702C61.6917 123.009 60.8145 125.086 60.8145 127.933C60.8145 133.948 64.0282 136.956 70.4556 136.956C72.0848 136.956 74.5376 136.643 77.814 136.016V147.806C75.3791 148.074 72.8905 148.208 70.3481 148.208C57.189 148.208 48.1924 145.057 43.3584 138.755C41.21 135.962 40.1357 132.409 40.1357 128.094ZM116.271 132.498C114.319 126.214 113.039 121.908 112.431 119.581C111.428 122.732 110.434 125.578 109.45 128.121C108.465 130.663 107.901 132.122 107.758 132.498H116.271ZM103.729 142.354L101.715 147.403C100.802 147.528 99.8981 147.591 99.0029 147.591C98.1077 147.591 93.5244 147.394 85.2529 147C87.3118 142.685 93.041 129.884 102.44 108.597C103.568 108.561 106.084 108.462 109.987 108.301C113.908 108.122 117.318 108.033 120.219 108.033C123.119 108.033 125.115 108.212 126.208 108.57C126.315 108.928 131.015 119.903 140.307 141.495L142.562 146.758C131.176 147.457 125.366 147.806 125.133 147.806C124.918 147.806 123.764 147.752 121.669 147.645C120.863 146.194 120.174 144.502 119.601 142.569C118.455 142.426 113.165 142.354 103.729 142.354ZM184.135 121.38C184.135 119.303 181.968 118.265 177.636 118.265C176.239 118.265 174.18 118.318 171.459 118.426L171.002 125.999C171.754 125.91 172.954 125.793 174.601 125.65C176.266 125.507 177.788 125.337 179.167 125.14C180.545 124.925 181.718 124.54 182.685 123.985C183.651 123.412 184.135 122.544 184.135 121.38ZM185.048 149.31C184.385 148.074 183.069 145.433 181.1 141.387C179.149 137.341 177.842 134.53 177.179 132.955L170.6 133.411L170.062 146.758C170.062 146.902 170 146.982 169.875 147C164.432 147.09 160.368 147.179 157.682 147.269L151.398 147.483C151.398 144.869 151.577 138.925 151.935 129.651L152.096 125.22L152.902 108.462C152.92 108.48 153.027 108.471 153.224 108.436C156.304 108.006 161.872 107.791 169.928 107.791C177.985 107.791 183.052 107.809 185.128 107.845C187.223 107.916 189.282 108.113 191.305 108.436C199.254 109.707 203.229 113.135 203.229 118.721C203.229 121.854 202.271 124.325 200.355 126.133C198.458 127.924 196.22 129.249 193.642 130.108C194.787 131.415 196.981 134.288 200.221 138.729C203.48 143.151 205.413 145.738 206.022 146.49L185.048 149.31ZM230.783 108.14L235.456 108.086C235.527 108.534 235.563 109.008 235.563 109.51L235.429 113.108L234.704 146.731L229.574 146.866C229.574 146.866 224.892 146.91 215.529 147C215.475 146.481 215.448 145.818 215.448 145.013C215.448 145.013 215.753 132.838 216.361 108.489C220.318 108.257 225.125 108.14 230.783 108.14ZM275.121 137.305C278.272 137.305 280.68 136.455 282.345 134.754C284.028 133.053 284.87 130.538 284.87 127.208C284.87 123.86 284.019 121.55 282.318 120.279C280.618 119.008 278.272 118.372 275.282 118.372C272.292 118.372 269.92 119.205 268.166 120.87C266.429 122.517 265.561 124.916 265.561 128.067C265.561 134.226 268.747 137.305 275.121 137.305ZM244.049 128.497C244.049 121.657 246.815 116.403 252.348 112.732C257.898 109.062 265.578 107.227 275.39 107.227C285.201 107.227 292.783 108.928 298.136 112.33C303.489 115.731 306.166 120.547 306.166 126.778C306.166 133.528 303.328 138.791 297.653 142.569C291.977 146.329 284.225 148.208 274.396 148.208C264.567 148.208 257.047 146.463 251.837 142.972C246.645 139.463 244.049 134.638 244.049 128.497ZM313.148 128.094C313.148 121.792 315.637 116.913 320.614 113.458C326.576 109.304 334.919 107.227 345.644 107.227C347.506 107.227 349.233 107.317 350.827 107.496V120.225C348.481 119.903 345.939 119.742 343.2 119.742C340.478 119.742 338.231 120.395 336.459 121.702C334.704 123.009 333.827 125.086 333.827 127.933C333.827 133.948 337.041 136.956 343.468 136.956C345.097 136.956 347.55 136.643 350.827 136.016V147.806C348.392 148.074 345.903 148.208 343.361 148.208C330.202 148.208 321.205 145.057 316.371 138.755C314.223 135.962 313.148 132.409 313.148 128.094ZM389.284 132.498C387.332 126.214 386.052 121.908 385.443 119.581C384.441 122.732 383.447 125.578 382.462 128.121C381.478 130.663 380.914 132.122 380.771 132.498H389.284ZM376.742 142.354L374.728 147.403C373.815 147.528 372.911 147.591 372.016 147.591C371.12 147.591 366.537 147.394 358.266 147C360.325 142.685 366.054 129.884 375.453 108.597C376.581 108.561 379.097 108.462 383 108.301C386.92 108.122 390.331 108.033 393.231 108.033C396.132 108.033 398.128 108.212 399.22 108.57C399.328 108.928 404.027 119.903 413.319 141.495L415.575 146.758C404.188 147.457 398.379 147.806 398.146 147.806C397.931 147.806 396.776 147.752 394.682 147.645C393.876 146.194 393.187 144.502 392.614 142.569C391.468 142.426 386.177 142.354 376.742 142.354ZM461.042 146.409C458.768 147.054 456.315 147.51 453.683 147.779C451.051 148.065 448.026 148.208 444.606 148.208C441.186 148.208 437.444 147.895 433.38 147.269C429.316 146.66 425.494 145.765 421.913 144.583C421.985 144.279 422.853 140.922 424.518 134.512C424.518 134.387 424.59 134.324 424.733 134.324C427.956 135.13 430.426 135.721 432.145 136.097C436.71 137.099 441.589 137.601 446.781 137.601C449.628 137.601 451.051 137.108 451.051 136.124C451.051 135.676 450.908 135.363 450.622 135.184C450.335 134.987 449.834 134.834 449.118 134.727C448.402 134.62 447.247 134.45 445.653 134.217C444.06 133.966 442.842 133.769 442.001 133.626C441.16 133.483 439.978 133.277 438.456 133.008C436.934 132.74 435.771 132.498 434.965 132.283C434.177 132.068 433.157 131.791 431.903 131.451C430.668 131.093 429.71 130.735 429.03 130.376C428.349 130.018 427.562 129.589 426.667 129.087C425.771 128.586 425.091 128.049 424.625 127.476C424.124 126.903 423.641 126.259 423.175 125.542C422.316 124.236 421.886 122.633 421.886 120.735C421.886 115.794 424.16 112.312 428.708 110.289C433.255 108.248 440.005 107.227 448.957 107.227C452.645 107.227 456.404 107.612 460.236 108.382C464.085 109.152 466.905 109.975 468.695 110.853C467.693 114.648 466.806 117.71 466.037 120.037C463.906 119.446 460.827 118.864 456.798 118.292C452.77 117.701 449.189 117.405 446.056 117.405C442.941 117.405 441.383 117.907 441.383 118.909C441.383 119.482 441.777 119.912 442.565 120.198C443.371 120.467 445.277 120.852 448.285 121.353C451.311 121.836 453.343 122.168 454.381 122.347C462.116 123.672 467.075 125.623 469.259 128.201C470.871 130.117 471.676 132.176 471.676 134.378C471.694 136.58 471.264 138.46 470.387 140.018C469.528 141.575 468.328 142.864 466.789 143.885C465.249 144.905 463.333 145.747 461.042 146.409Z" fill="#F1EBB1"/>
</g>
</g>
<defs>
<filter id="filter0_di" x="-40" y="129.806" width="612" height="357.194" filterUnits="userSpaceOnUse" color-interpolation-filters="sRGB">
<feFlood flood-opacity="0" result="BackgroundImageFix"/>
<feColorMatrix in="SourceAlpha" type="matrix" values="0 0 0 0 0 0 0 0 0 0 0 0 0 0 0 0 0 0 127 0" result="hardAlpha"/>
<feOffset dx="10"/>
<feGaussianBlur stdDeviation="25"/>
<feComposite in2="hardAlpha" operator="out"/>
<feColorMatrix type="matrix" values="0 0 0 0 0 0 0 0 0 0 0 0 0 0 0 0 0 0 0.8 0"/>
<feBlend mode="normal" in2="BackgroundImageFix" result="effect1_dropShadow"/>
<feBlend mode="normal" in="SourceGraphic" in2="effect1_dropShadow" result="shape"/>
<feColorMatrix in="SourceAlpha" type="matrix" values="0 0 0 0 0 0 0 0 0 0 0 0 0 0 0 0 0 0 127 0" result="hardAlpha"/>
<feOffset dy="-50"/>
<feGaussianBlur stdDeviation="40"/>
<feComposite in2="hardAlpha" operator="arithmetic" k2="-1" k3="1"/>
<feColorMatrix type="matrix" values="0 0 0 0 0 0 0 0 0 0 0 0 0 0 0 0 0 0 0.6 0"/>
<feBlend mode="normal" in2="shape" result="effect2_innerShadow"/>
</filter>
<filter id="filter1_d" x="25.1357" y="23.2271" width="461.541" height="141.083" filterUnits="userSpaceOnUse" color-interpolation-filters="sRGB">
<feFlood flood-opacity="0" result="BackgroundImageFix"/>
<feColorMatrix in="SourceAlpha" type="matrix" values="0 0 0 0 0 0 0 0 0 0 0 0 0 0 0 0 0 0 127 0" result="hardAlpha"/>
<feOffset/>
<feGaussianBlur stdDeviation="7.5"/>
<feComposite in2="hardAlpha" operator="out"/>
<feColorMatrix type="matrix" values="0 0 0 0 0 0 0 0 0 0 0 0 0 0 0 0 0 0 0.6 0"/>
<feBlend mode="normal" in2="BackgroundImageFix" result="effect1_dropShadow"/>
<feBlend mode="normal" in="SourceGraphic" in2="effect1_dropShadow" result="shape"/>
</filter>
<clipPath id="clip0">
<rect width="512" height="438" fill="white"/>
</clipPath>
</defs>
</svg>
